# xmcd
#
# Track frame offsets: 
#        150
#        15565
#        31915
#        49551
#        68814
#        94260
#        110313
#        133540
#        148804
#        172995
#        192219
#        213329
#        229100
#
# Disc length: 3316 seconds
#
# Revision: 3
# Processed by: cddbd v1.5.2PL0 Copyright (c) Steve Scherf et al.
# Submitted via: ExactAudioCopy v1.0b3
#
DISCID=ab0cf20d
DTITLE=Various Artist - Best of Audiophile Sax 2
DYEAR=2008
DGENRE=Instrumental
TTITLE0=House of the Rising Sun
TTITLE1=Tears in Heaven
TTITLE2=When Will You Come Again (何日君再來) 
TTITLE3=Fly Me to the Moon
TTITLE4=Tennessee Waltz
TTITLE5=Yesterday Once More
TTITLE6=Softly As I Love You
TTITLE7=Unchained Melody
TTITLE8=More
TTITLE9=Changing Partners
TTITLE10=Too Young
TTITLE11=Dreamer Lover (夢中人)
TTITLE12=I Left My Heart in San Franchisco
EXTD=
EXTT0=
EXTT1=
EXTT2=
EXTT3=
EXTT4=
EXTT5=
EXTT6=
EXTT7=
EXTT8=
EXTT9=
EXTT10=
EXTT11=
EXTT12=
PLAYORDER=
